<svg version="1.1" id="Camada_1" xmlns="http://www.w3.org/2000/svg" xmlns:xlink="http://www.w3.org/1999/xlink" x="0" y="0" viewBox="0 0 422.36 283.46" xml:space="preserve"><style>.st4{stroke:#4e555c}.st4,.st5,.st6{fill:none;stroke-width:7;stroke-miterlimit:10}.st5{stroke:#797e87}.st6{stroke:#a3a7b0}</style><defs><path id="SVGID_17_" d="M-128.22-3.51h-147.3l-73.64 127.56 73.64 127.56h147.3l73.64-127.56z"/></defs><clipPath id="SVGID_2_"><use xlink:href="#SVGID_17_" overflow="visible"/></clipPath><g clip-path="url(#SVGID_2_)"><path class="st6" d="M-565.32 15.54h864"/><path class="st4" d="M-565.32 35.08h864"/><path class="st5" d="M-565.32 54.63h864"/><path class="st6" d="M-565.32 74.18h864"/><path class="st4" d="M-565.32 93.73h864"/><path class="st5" d="M-565.32 113.27h864"/><path class="st6" d="M-565.32 132.82h864"/><path class="st4" d="M-565.32 152.37h864"/><path class="st5" d="M-565.32 171.92h864"/><path class="st6" d="M-565.32 191.46h864"/><path class="st4" d="M-565.32 211.01h864"/><path class="st5" d="M-565.32 230.56h864"/><path class="st6" d="M-565.32 250.11h864"/><path class="st4" d="M-565.32 269.65h864"/></g><defs><path id="SVGID_21_" d="M408.15 269.29H14.22L92.95 14.17h236.47z"/></defs><clipPath id="SVGID_4_"><use xlink:href="#SVGID_21_" overflow="visible"/></clipPath><g clip-path="url(#SVGID_4_)"><path class="st5" d="M-201.87 13.67h864"/><path class="st6" d="M-201.87 33.22h864"/><path class="st4" d="M-201.87 52.77h864"/><path class="st5" d="M-201.87 72.32h864"/><path class="st6" d="M-201.87 91.86h864"/><path class="st4" d="M-201.87 111.41h864"/><path class="st5" d="M-201.87 130.96h864"/><path class="st6" d="M-201.87 150.51h864"/><path class="st4" d="M-201.87 170.05h864"/><path class="st5" d="M-201.87 189.6h864"/><path class="st6" d="M-201.87 209.15h864"/><path class="st4" d="M-201.87 228.7h864"/><path class="st5" d="M-201.87 248.24h864"/><path class="st6" d="M-201.87 267.79h864"/></g></svg>