<svg version="1.1" id="Camada_1" xmlns="http://www.w3.org/2000/svg" xmlns:xlink="http://www.w3.org/1999/xlink" x="0" y="0" viewBox="0 0 283.46 283.46" xml:space="preserve"><style>.st4{stroke:#4e555c}.st4,.st5,.st6{fill:none;stroke-width:7;stroke-miterlimit:10}.st5{stroke:#797e87}.st6{stroke:#a3a7b0}</style><defs><circle id="SVGID_1_" cx="141.73" cy="141.73" r="127.56"/></defs><clipPath id="SVGID_2_"><use xlink:href="#SVGID_1_" overflow="visible"/></clipPath><g clip-path="url(#SVGID_2_)"><path class="st5" d="M-201.87 13.67h864"/><path class="st6" d="M-201.87 33.22h864"/><path class="st4" d="M-201.87 52.77h864"/><path class="st5" d="M-201.87 72.32h864"/><path class="st6" d="M-201.87 91.86h864"/><path class="st4" d="M-201.87 111.41h864"/><path class="st5" d="M-201.87 130.96h864"/><path class="st6" d="M-201.87 150.51h864"/><path class="st4" d="M-201.87 170.05h864"/><path class="st5" d="M-201.87 189.6h864"/><path class="st6" d="M-201.87 209.15h864"/><path class="st4" d="M-201.87 228.7h864"/><path class="st5" d="M-201.87 248.24h864"/><path class="st6" d="M-201.87 267.79h864"/></g><defs><path id="SVGID_5_" d="M334.38 14.17H589.5v255.12H334.38z"/></defs><clipPath id="SVGID_4_"><use xlink:href="#SVGID_5_" overflow="visible"/></clipPath><g clip-path="url(#SVGID_4_)"><path class="st5" d="M118.34 13.67h864"/><path class="st6" d="M118.34 33.22h864"/><path class="st4" d="M118.34 52.77h864"/><path class="st5" d="M118.34 72.32h864"/><path class="st6" d="M118.34 91.86h864"/><path class="st4" d="M118.34 111.41h864"/><path class="st5" d="M118.34 130.96h864"/><path class="st6" d="M118.34 150.51h864"/><path class="st4" d="M118.34 170.05h864"/><path class="st5" d="M118.34 189.6h864"/><path class="st6" d="M118.34 209.15h864"/><path class="st4" d="M118.34 228.7h864"/><path class="st5" d="M118.34 248.24h864"/><path class="st6" d="M118.34 267.79h864"/></g></svg>