<svg version="1.1" id="Camada_1" xmlns="http://www.w3.org/2000/svg" xmlns:xlink="http://www.w3.org/1999/xlink" x="0" y="0" viewBox="0 0 323.15 283.46" xml:space="preserve"><style>.st4{stroke:#4e555c}.st4,.st5,.st6{fill:none;stroke-width:7;stroke-miterlimit:10}.st5{stroke:#797e87}.st6{stroke:#a3a7b0}</style><defs><path id="SVGID_9_" d="M-457.48 14.17h396.85v255.12h-396.85z"/></defs><clipPath id="SVGID_2_"><use xlink:href="#SVGID_9_" overflow="visible"/></clipPath><g clip-path="url(#SVGID_2_)"><path class="st5" d="M-673.53 13.67h864"/><path class="st6" d="M-673.53 33.22h864"/><path class="st4" d="M-673.53 52.77h864"/><path class="st5" d="M-673.53 72.32h864"/><path class="st6" d="M-673.53 91.86h864"/><path class="st4" d="M-673.53 111.41h864"/><path class="st5" d="M-673.53 130.96h864"/><path class="st6" d="M-673.53 150.51h864"/><path class="st4" d="M-673.53 170.05h864"/><path class="st5" d="M-673.53 189.6h864"/><path class="st6" d="M-673.53 209.15h864"/><path class="st4" d="M-673.53 228.7h864"/><path class="st5" d="M-673.53 248.24h864"/><path class="st6" d="M-673.53 267.79h864"/></g><defs><path id="SVGID_13_" d="M161.57 14.17L14.28 269.29h294.59z"/></defs><clipPath id="SVGID_4_"><use xlink:href="#SVGID_13_" overflow="visible"/></clipPath><g clip-path="url(#SVGID_4_)"><path class="st5" d="M-201.87 13.67h864"/><path class="st6" d="M-201.87 33.22h864"/><path class="st4" d="M-201.87 52.77h864"/><path class="st5" d="M-201.87 72.32h864"/><path class="st6" d="M-201.87 91.86h864"/><path class="st4" d="M-201.87 111.41h864"/><path class="st5" d="M-201.87 130.96h864"/><path class="st6" d="M-201.87 150.51h864"/><path class="st4" d="M-201.87 170.05h864"/><path class="st5" d="M-201.87 189.6h864"/><path class="st6" d="M-201.87 209.15h864"/><path class="st4" d="M-201.87 228.7h864"/><path class="st5" d="M-201.87 248.24h864"/><path class="st6" d="M-201.87 267.79h864"/></g><defs><path id="SVGID_17_" d="M617.96 14.17h-147.3l-73.64 127.56 73.64 127.56h147.3l73.64-127.56z"/></defs><clipPath id="SVGID_6_"><use xlink:href="#SVGID_17_" overflow="visible"/></clipPath><g clip-path="url(#SVGID_6_)"><path class="st5" d="M180.87 13.67h863.99"/><path class="st6" d="M180.87 33.22h863.99"/><path class="st4" d="M180.87 52.77h863.99"/><path class="st5" d="M180.87 72.32h863.99"/><path class="st6" d="M180.87 91.86h863.99"/><path class="st4" d="M180.87 111.41h863.99"/><path class="st5" d="M180.87 130.96h863.99"/><path class="st6" d="M180.87 150.51h863.99"/><path class="st4" d="M180.87 170.05h863.99"/><path class="st5" d="M180.87 189.6h863.99"/><path class="st6" d="M180.87 209.15h863.99"/><path class="st4" d="M180.87 228.7h863.99"/><path class="st5" d="M180.87 248.24h863.99"/><path class="st6" d="M180.87 267.79h863.99"/></g></svg>