<svg version="1.1" id="Camada_1" xmlns="http://www.w3.org/2000/svg" xmlns:xlink="http://www.w3.org/1999/xlink" x="0" y="0" viewBox="0 0 425.2 283.46" xml:space="preserve"><style>.st4{stroke:#4e555c}.st4,.st5,.st6{fill:none;stroke-width:7;stroke-miterlimit:10}.st5{stroke:#797e87}.st6{stroke:#a3a7b0}</style><defs><circle id="SVGID_1_" cx="-514.98" cy="141.73" r="127.56"/></defs><clipPath id="SVGID_2_"><use xlink:href="#SVGID_1_" overflow="visible"/></clipPath><g clip-path="url(#SVGID_2_)"><path class="st5" d="M-858.58 13.67h864"/><path class="st6" d="M-858.58 33.22h864"/><path class="st4" d="M-858.58 52.77h864"/><path class="st5" d="M-858.58 72.32h864"/><path class="st6" d="M-858.58 91.86h864"/><path class="st4" d="M-858.58 111.41h864"/><path class="st5" d="M-858.58 130.96h864"/><path class="st6" d="M-858.58 150.51h864"/><path class="st4" d="M-858.58 170.05h864"/><path class="st5" d="M-858.58 189.6h864"/><path class="st6" d="M-858.58 209.15h864"/><path class="st4" d="M-858.58 228.7h864"/><path class="st5" d="M-858.58 248.24h864"/><path class="st6" d="M-858.58 267.79h864"/></g><defs><path id="SVGID_5_" d="M-322.33 14.17h255.12v255.12h-255.12z"/></defs><clipPath id="SVGID_4_"><use xlink:href="#SVGID_5_" overflow="visible"/></clipPath><g clip-path="url(#SVGID_4_)"><path class="st5" d="M-538.37 13.67h864"/><path class="st6" d="M-538.37 33.22h864"/><path class="st4" d="M-538.37 52.77h864"/><path class="st5" d="M-538.37 72.32h864"/><path class="st6" d="M-538.37 91.86h864"/><path class="st4" d="M-538.37 111.41h864"/><path class="st5" d="M-538.37 130.96h864"/><path class="st6" d="M-538.37 150.51h864"/><path class="st4" d="M-538.37 170.05h864"/><path class="st5" d="M-538.37 189.6h864"/><path class="st6" d="M-538.37 209.15h864"/><path class="st4" d="M-538.37 228.7h864"/><path class="st5" d="M-538.37 248.24h864"/><path class="st6" d="M-538.37 267.79h864"/></g><defs><path id="SVGID_9_" d="M14.17 14.17h396.85v255.12H14.17z"/></defs><clipPath id="SVGID_6_"><use xlink:href="#SVGID_9_" overflow="visible"/></clipPath><g clip-path="url(#SVGID_6_)"><path class="st5" d="M-201.87 13.67h864"/><path class="st6" d="M-201.87 33.22h864"/><path class="st4" d="M-201.87 52.77h864"/><path class="st5" d="M-201.87 72.32h864"/><path class="st6" d="M-201.87 91.86h864"/><path class="st4" d="M-201.87 111.41h864"/><path class="st5" d="M-201.87 130.96h864"/><path class="st6" d="M-201.87 150.51h864"/><path class="st4" d="M-201.87 170.05h864"/><path class="st5" d="M-201.87 189.6h864"/><path class="st6" d="M-201.87 209.15h864"/><path class="st4" d="M-201.87 228.7h864"/><path class="st5" d="M-201.87 248.24h864"/><path class="st6" d="M-201.87 267.79h864"/></g><defs><path id="SVGID_13_" d="M633.23 14.17L485.94 269.29h294.58z"/></defs><clipPath id="SVGID_8_"><use xlink:href="#SVGID_13_" overflow="visible"/></clipPath><g clip-path="url(#SVGID_8_)"><path class="st5" d="M269.78 13.67h864"/><path class="st6" d="M269.78 33.22h864"/><path class="st4" d="M269.78 52.77h864"/><path class="st5" d="M269.78 72.32h864"/><path class="st6" d="M269.78 91.86h864"/><path class="st4" d="M269.78 111.41h864"/><path class="st5" d="M269.78 130.96h864"/><path class="st6" d="M269.78 150.51h864"/><path class="st4" d="M269.78 170.05h864"/><path class="st5" d="M269.78 189.6h864"/><path class="st6" d="M269.78 209.15h864"/><path class="st4" d="M269.78 228.7h864"/><path class="st5" d="M269.78 248.24h864"/><path class="st6" d="M269.78 267.79h864"/></g></svg>