<svg version="1.1" id="Camada_1" xmlns="http://www.w3.org/2000/svg" xmlns:xlink="http://www.w3.org/1999/xlink" x="0" y="0" viewBox="0 0 283.46 283.46" xml:space="preserve"><style>.st10,.st8,.st9{fill:none;stroke-width:6;stroke-miterlimit:10}.st8{stroke:#4e555c}.st9{stroke:#cb6107}.st10{stroke:#a3a7b0}</style><defs><circle id="SVGID_3_" cx="141.73" cy="141.73" r="127.56"/></defs><clipPath id="SVGID_2_"><use xlink:href="#SVGID_3_" overflow="visible"/></clipPath><g clip-path="url(#SVGID_2_)"><path class="st9" d="M-270.42 14.67h863.99"/><path class="st10" d="M-270.42 34.22h863.99"/><path class="st8" d="M-270.42 53.77h863.99"/><path class="st9" d="M-270.42 73.32h863.99"/><path class="st10" d="M-270.42 92.86h863.99"/><path class="st8" d="M-270.42 112.41h863.99"/><path class="st9" d="M-270.42 131.96h863.99"/><path class="st10" d="M-270.42 151.51h863.99"/><path class="st8" d="M-270.42 171.05h863.99"/><path class="st9" d="M-270.42 190.6h863.99"/><path class="st10" d="M-270.42 210.15h863.99"/><path class="st8" d="M-270.42 229.7h863.99"/><path class="st9" d="M-270.42 249.24h863.99"/><path class="st10" d="M-270.42 268.79h863.99"/></g><defs><path id="SVGID_7_" d="M334.38 14.17H589.5v255.12H334.38z"/></defs><clipPath id="SVGID_4_"><use xlink:href="#SVGID_7_" overflow="visible"/></clipPath><g clip-path="url(#SVGID_4_)"><path class="st9" d="M49.79 14.67h863.99"/><path class="st10" d="M49.79 34.22h863.99"/><path class="st8" d="M49.79 53.77h863.99"/><path class="st9" d="M49.79 73.32h863.99"/><path class="st10" d="M49.79 92.86h863.99"/><path class="st8" d="M49.79 112.41h863.99"/><path class="st9" d="M49.79 131.96h863.99"/><path class="st10" d="M49.79 151.51h863.99"/><path class="st8" d="M49.79 171.05h863.99"/><path class="st9" d="M49.79 190.6h863.99"/><path class="st10" d="M49.79 210.15h863.99"/><path class="st8" d="M49.79 229.7h863.99"/><path class="st9" d="M49.79 249.24h863.99"/><path class="st10" d="M49.79 268.79h863.99"/></g></svg>