<svg version="1.1" id="Camada_1" xmlns="http://www.w3.org/2000/svg" xmlns:xlink="http://www.w3.org/1999/xlink" x="0" y="0" viewBox="0 0 323.15 283.46" xml:space="preserve"><style>.st10,.st8,.st9{fill:none;stroke-width:6;stroke-miterlimit:10}.st8{stroke:#4e555c}.st9{stroke:#cb6107}.st10{stroke:#a3a7b0}</style><defs><path id="SVGID_15_" d="M-221.16 14.17l-147.29 255.12h294.58z"/></defs><clipPath id="SVGID_2_"><use xlink:href="#SVGID_15_" overflow="visible"/></clipPath><g clip-path="url(#SVGID_2_)"><path class="st9" d="M-653.16 14.67h864"/><path class="st10" d="M-653.16 34.22h864"/><path class="st8" d="M-653.16 53.77h864"/><path class="st9" d="M-653.16 73.32h864"/><path class="st10" d="M-653.16 92.86h864"/><path class="st8" d="M-653.16 112.41h864"/><path class="st9" d="M-653.16 131.96h864"/><path class="st10" d="M-653.16 151.51h864"/><path class="st8" d="M-653.16 171.05h864"/><path class="st9" d="M-653.16 190.6h864"/><path class="st10" d="M-653.16 210.15h864"/><path class="st8" d="M-653.16 229.7h864"/><path class="st9" d="M-653.16 249.24h864"/><path class="st10" d="M-653.16 268.79h864"/></g><defs><path id="SVGID_19_" d="M235.22 14.17H87.93L14.28 141.73l73.65 127.56h147.29l73.65-127.56z"/></defs><clipPath id="SVGID_4_"><use xlink:href="#SVGID_19_" overflow="visible"/></clipPath><g clip-path="url(#SVGID_4_)"><path class="st9" d="M-270.42 14.67h863.99"/><path class="st10" d="M-270.42 34.22h863.99"/><path class="st8" d="M-270.42 53.77h863.99"/><path class="st9" d="M-270.42 73.32h863.99"/><path class="st10" d="M-270.42 92.86h863.99"/><path class="st8" d="M-270.42 112.41h863.99"/><path class="st9" d="M-270.42 131.96h863.99"/><path class="st10" d="M-270.42 151.51h863.99"/><path class="st8" d="M-270.42 171.05h863.99"/><path class="st9" d="M-270.42 190.6h863.99"/><path class="st10" d="M-270.42 210.15h863.99"/><path class="st8" d="M-270.42 229.7h863.99"/><path class="st9" d="M-270.42 249.24h863.99"/><path class="st10" d="M-270.42 268.79h863.99"/></g><defs><path id="SVGID_23_" d="M771.59 269.29H377.66l78.73-255.12h236.47z"/></defs><clipPath id="SVGID_6_"><use xlink:href="#SVGID_23_" overflow="visible"/></clipPath><g clip-path="url(#SVGID_6_)"><path class="st9" d="M161.57 13.67h864"/><path class="st10" d="M161.57 33.22h864"/><path class="st8" d="M161.57 52.77h864"/><path class="st9" d="M161.57 72.32h864"/><path class="st10" d="M161.57 91.86h864"/><path class="st8" d="M161.57 111.41h864"/><path class="st9" d="M161.57 130.96h864"/><path class="st10" d="M161.57 150.51h864"/><path class="st8" d="M161.57 170.05h864"/><path class="st9" d="M161.57 189.6h864"/><path class="st10" d="M161.57 209.15h864"/><path class="st8" d="M161.57 228.7h864"/><path class="st9" d="M161.57 248.24h864"/><path class="st10" d="M161.57 267.79h864"/></g></svg>