<svg version="1.1" id="Camada_1" xmlns="http://www.w3.org/2000/svg" xmlns:xlink="http://www.w3.org/1999/xlink" x="0" y="0" viewBox="0 0 422.36 283.46" xml:space="preserve"><style>.st10,.st8,.st9{fill:none;stroke-width:6;stroke-miterlimit:10}.st8{stroke:#4e555c}.st9{stroke:#cb6107}.st10{stroke:#a3a7b0}</style><defs><path id="SVGID_19_" d="M-128.22 14.17h-147.3l-73.64 127.56 73.64 127.56h147.3l73.64-127.56z"/></defs><clipPath id="SVGID_2_"><use xlink:href="#SVGID_19_" overflow="visible"/></clipPath><g clip-path="url(#SVGID_2_)"><path class="st9" d="M-633.87 14.67h864"/><path class="st10" d="M-633.87 34.22h864"/><path class="st8" d="M-633.87 53.77h864"/><path class="st9" d="M-633.87 73.32h864"/><path class="st10" d="M-633.87 92.86h864"/><path class="st8" d="M-633.87 112.41h864"/><path class="st9" d="M-633.87 131.96h864"/><path class="st10" d="M-633.87 151.51h864"/><path class="st8" d="M-633.87 171.05h864"/><path class="st9" d="M-633.87 190.6h864"/><path class="st10" d="M-633.87 210.15h864"/><path class="st8" d="M-633.87 229.7h864"/><path class="st9" d="M-633.87 249.24h864"/><path class="st10" d="M-633.87 268.79h864"/></g><defs><path id="SVGID_23_" d="M408.15 269.29H14.22L92.95 14.17h236.47z"/></defs><clipPath id="SVGID_4_"><use xlink:href="#SVGID_23_" overflow="visible"/></clipPath><g clip-path="url(#SVGID_4_)"><path class="st9" d="M-201.87 13.67h864"/><path class="st10" d="M-201.87 33.22h864"/><path class="st8" d="M-201.87 52.77h864"/><path class="st9" d="M-201.87 72.32h864"/><path class="st10" d="M-201.87 91.86h864"/><path class="st8" d="M-201.87 111.41h864"/><path class="st9" d="M-201.87 130.96h864"/><path class="st10" d="M-201.87 150.51h864"/><path class="st8" d="M-201.87 170.05h864"/><path class="st9" d="M-201.87 189.6h864"/><path class="st10" d="M-201.87 209.15h864"/><path class="st8" d="M-201.87 228.7h864"/><path class="st9" d="M-201.87 248.24h864"/><path class="st10" d="M-201.87 267.79h864"/></g></svg>