<svg version="1.1" id="Camada_1" xmlns="http://www.w3.org/2000/svg" xmlns:xlink="http://www.w3.org/1999/xlink" x="0" y="0" viewBox="0 0 283.46 283.46" xml:space="preserve"><style>.st4{stroke:#4e555c}.st4,.st5,.st6{fill:none;stroke-width:7;stroke-miterlimit:10}.st5{stroke:#797e87}.st6{stroke:#a3a7b0}</style><defs><circle id="SVGID_1_" cx="-178.48" cy="141.73" r="127.56"/></defs><clipPath id="SVGID_2_"><use xlink:href="#SVGID_1_" overflow="visible"/></clipPath><g clip-path="url(#SVGID_2_)"><path class="st5" d="M-522.08 13.67h864"/><path class="st6" d="M-522.08 33.22h864"/><path class="st4" d="M-522.08 52.77h864"/><path class="st5" d="M-522.08 72.32h864"/><path class="st6" d="M-522.08 91.86h864"/><path class="st4" d="M-522.08 111.41h864"/><path class="st5" d="M-522.08 130.96h864"/><path class="st6" d="M-522.08 150.51h864"/><path class="st4" d="M-522.08 170.05h864"/><path class="st5" d="M-522.08 189.6h864"/><path class="st6" d="M-522.08 209.15h864"/><path class="st4" d="M-522.08 228.7h864"/><path class="st5" d="M-522.08 248.24h864"/><path class="st6" d="M-522.08 267.79h864"/></g><defs><path id="SVGID_5_" d="M14.17 14.17h255.12v255.12H14.17z"/></defs><clipPath id="SVGID_4_"><use xlink:href="#SVGID_5_" overflow="visible"/></clipPath><g clip-path="url(#SVGID_4_)"><path class="st5" d="M-201.87 13.67h864"/><path class="st6" d="M-201.87 33.22h864"/><path class="st4" d="M-201.87 52.77h864"/><path class="st5" d="M-201.87 72.32h864"/><path class="st6" d="M-201.87 91.86h864"/><path class="st4" d="M-201.87 111.41h864"/><path class="st5" d="M-201.87 130.96h864"/><path class="st6" d="M-201.87 150.51h864"/><path class="st4" d="M-201.87 170.05h864"/><path class="st5" d="M-201.87 189.6h864"/><path class="st6" d="M-201.87 209.15h864"/><path class="st4" d="M-201.87 228.7h864"/><path class="st5" d="M-201.87 248.24h864"/><path class="st6" d="M-201.87 267.79h864"/></g><defs><path id="SVGID_9_" d="M350.67 14.17h396.85v255.12H350.67z"/></defs><clipPath id="SVGID_6_"><use xlink:href="#SVGID_9_" overflow="visible"/></clipPath><g clip-path="url(#SVGID_6_)"><path class="st5" d="M134.63 13.67h864"/><path class="st6" d="M134.63 33.22h864"/><path class="st4" d="M134.63 52.77h864"/><path class="st5" d="M134.63 72.32h864"/><path class="st6" d="M134.63 91.86h864"/><path class="st4" d="M134.63 111.41h864"/><path class="st5" d="M134.63 130.96h864"/><path class="st6" d="M134.63 150.51h864"/><path class="st4" d="M134.63 170.05h864"/><path class="st5" d="M134.63 189.6h864"/><path class="st6" d="M134.63 209.15h864"/><path class="st4" d="M134.63 228.7h864"/><path class="st5" d="M134.63 248.24h864"/><path class="st6" d="M134.63 267.79h864"/></g></svg>