<svg version="1.1" id="Camada_1" xmlns="http://www.w3.org/2000/svg" xmlns:xlink="http://www.w3.org/1999/xlink" x="0" y="0" viewBox="0 0 323.15 283.46" xml:space="preserve"><style>.st10,.st8,.st9{fill:none;stroke-width:6;stroke-miterlimit:10}.st8{stroke:#4e555c}.st9{stroke:#cb6107}.st10{stroke:#a3a7b0}</style><defs><path id="SVGID_11_" d="M-457.48 14.17h396.85v255.12h-396.85z"/></defs><clipPath id="SVGID_2_"><use xlink:href="#SVGID_11_" overflow="visible"/></clipPath><g clip-path="url(#SVGID_2_)"><path class="st9" d="M-742.08 14.67h864"/><path class="st10" d="M-742.08 34.22h864"/><path class="st8" d="M-742.08 53.77h864"/><path class="st9" d="M-742.08 73.32h864"/><path class="st10" d="M-742.08 92.86h864"/><path class="st8" d="M-742.08 112.41h864"/><path class="st9" d="M-742.08 131.96h864"/><path class="st10" d="M-742.08 151.51h864"/><path class="st8" d="M-742.08 171.05h864"/><path class="st9" d="M-742.08 190.6h864"/><path class="st10" d="M-742.08 210.15h864"/><path class="st8" d="M-742.08 229.7h864"/><path class="st9" d="M-742.08 249.24h864"/><path class="st10" d="M-742.08 268.79h864"/></g><defs><path id="SVGID_15_" d="M161.57 14.17L14.28 269.29h294.59z"/></defs><clipPath id="SVGID_4_"><use xlink:href="#SVGID_15_" overflow="visible"/></clipPath><g clip-path="url(#SVGID_4_)"><path class="st9" d="M-270.42 14.67h863.99"/><path class="st10" d="M-270.42 34.22h863.99"/><path class="st8" d="M-270.42 53.77h863.99"/><path class="st9" d="M-270.42 73.32h863.99"/><path class="st10" d="M-270.42 92.86h863.99"/><path class="st8" d="M-270.42 112.41h863.99"/><path class="st9" d="M-270.42 131.96h863.99"/><path class="st10" d="M-270.42 151.51h863.99"/><path class="st8" d="M-270.42 171.05h863.99"/><path class="st9" d="M-270.42 190.6h863.99"/><path class="st10" d="M-270.42 210.15h863.99"/><path class="st8" d="M-270.42 229.7h863.99"/><path class="st9" d="M-270.42 249.24h863.99"/><path class="st10" d="M-270.42 268.79h863.99"/></g><defs><path id="SVGID_19_" d="M617.96 14.17h-147.3l-73.64 127.56 73.64 127.56h147.3l73.64-127.56z"/></defs><clipPath id="SVGID_6_"><use xlink:href="#SVGID_19_" overflow="visible"/></clipPath><g clip-path="url(#SVGID_6_)"><path class="st9" d="M112.31 14.67h864"/><path class="st10" d="M112.31 34.22h864"/><path class="st8" d="M112.31 53.77h864"/><path class="st9" d="M112.31 73.32h864"/><path class="st10" d="M112.31 92.86h864"/><path class="st8" d="M112.31 112.41h864"/><path class="st9" d="M112.31 131.96h864"/><path class="st10" d="M112.31 151.51h864"/><path class="st8" d="M112.31 171.05h864"/><path class="st9" d="M112.31 190.6h864"/><path class="st10" d="M112.31 210.15h864"/><path class="st8" d="M112.31 229.7h864"/><path class="st9" d="M112.31 249.24h864"/><path class="st10" d="M112.31 268.79h864"/></g></svg>