<svg version="1.1" id="Camada_1" xmlns="http://www.w3.org/2000/svg" xmlns:xlink="http://www.w3.org/1999/xlink" x="0" y="0" viewBox="0 0 323.15 283.46" xml:space="preserve"><style>.st4{stroke:#4e555c}.st4,.st5,.st6{fill:none;stroke-width:7;stroke-miterlimit:10}.st5{stroke:#797e87}.st6{stroke:#a3a7b0}</style><defs><path id="SVGID_13_" d="M-221.16 14.17l-147.29 255.12h294.58z"/></defs><clipPath id="SVGID_2_"><use xlink:href="#SVGID_13_" overflow="visible"/></clipPath><g clip-path="url(#SVGID_2_)"><path class="st5" d="M-584.61 13.67h864"/><path class="st6" d="M-584.61 33.22h864"/><path class="st4" d="M-584.61 52.77h864"/><path class="st5" d="M-584.61 72.32h864"/><path class="st6" d="M-584.61 91.86h864"/><path class="st4" d="M-584.61 111.41h864"/><path class="st5" d="M-584.61 130.96h864"/><path class="st6" d="M-584.61 150.51h864"/><path class="st4" d="M-584.61 170.05h864"/><path class="st5" d="M-584.61 189.6h864"/><path class="st6" d="M-584.61 209.15h864"/><path class="st4" d="M-584.61 228.7h864"/><path class="st5" d="M-584.61 248.24h864"/><path class="st6" d="M-584.61 267.79h864"/></g><defs><path id="SVGID_17_" d="M235.22 14.17H87.93L14.28 141.73l73.65 127.56h147.29l73.65-127.56z"/></defs><clipPath id="SVGID_4_"><use xlink:href="#SVGID_17_" overflow="visible"/></clipPath><g clip-path="url(#SVGID_4_)"><path class="st5" d="M-201.87 13.67h864"/><path class="st6" d="M-201.87 33.22h864"/><path class="st4" d="M-201.87 52.77h864"/><path class="st5" d="M-201.87 72.32h864"/><path class="st6" d="M-201.87 91.86h864"/><path class="st4" d="M-201.87 111.41h864"/><path class="st5" d="M-201.87 130.96h864"/><path class="st6" d="M-201.87 150.51h864"/><path class="st4" d="M-201.87 170.05h864"/><path class="st5" d="M-201.87 189.6h864"/><path class="st6" d="M-201.87 209.15h864"/><path class="st4" d="M-201.87 228.7h864"/><path class="st5" d="M-201.87 248.24h864"/><path class="st6" d="M-201.87 267.79h864"/></g><defs><path id="SVGID_21_" d="M771.59 286.98H377.66l78.73-255.12h236.47z"/></defs><clipPath id="SVGID_6_"><use xlink:href="#SVGID_21_" overflow="visible"/></clipPath><g clip-path="url(#SVGID_6_)"><path class="st4" d="M161.57 11.81h864"/><path class="st5" d="M161.57 31.36h864"/><path class="st6" d="M161.57 50.91h864"/><path class="st4" d="M161.57 70.45h864"/><path class="st5" d="M161.57 90h864"/><path class="st6" d="M161.57 109.55h864"/><path class="st4" d="M161.57 129.1h864"/><path class="st5" d="M161.57 148.64h864"/><path class="st6" d="M161.57 168.19h864"/><path class="st4" d="M161.57 187.74h864"/><path class="st5" d="M161.57 207.28h864"/><path class="st6" d="M161.57 226.83h864"/><path class="st4" d="M161.57 246.38h864"/><path class="st5" d="M161.57 265.93h864"/><path class="st6" d="M161.57 285.47h864"/></g></svg>