<svg version="1.1" id="Camada_1" xmlns="http://www.w3.org/2000/svg" x="0" y="0" viewBox="0 0 697.32 283.46" xml:space="preserve"><path d="M135.75 70.34v198.95H69.43V70.34H14.96V14.17h175.27v56.17h-54.48zm247.87 198.95H317.3V14.17h105.57c28.64 0 50.58 7.44 65.81 22.33 15.22 14.89 22.84 35.87 22.84 62.93 0 27.07-7.61 48.05-22.84 62.93-15.23 14.89-37.17 22.33-65.81 22.33h-39.25v84.6zm0-138.05h21.99c24.36 0 36.54-10.6 36.54-31.81 0-21.2-12.18-31.8-36.54-31.8h-21.99v63.61zm298.75-60.9h-78.84v42.63h74.44v56.17h-74.44v43.98h78.84v56.17H537.21V14.17h145.15v56.17z" fill="#4e555c"/><path d="M219.66 202.97h66.32v66.32h-66.32zm0-188.8h66.32v167.56h-66.32z" fill="#cb6107"/></svg>